<?xml version="1.0" standalone="no"?>
<!DOCTYPE svg PUBLIC "-//W3C//DTD SVG 20010904//EN"
 "http://www.w3.org/TR/2001/REC-SVG-20010904/DTD/svg10.dtd">
<svg version="1.0" xmlns="http://www.w3.org/2000/svg"
 width="441.000000pt" height="509.000000pt" viewBox="0 0 441.000000 509.000000"
 preserveAspectRatio="xMidYMid meet">

<g transform="translate(0.000000,509.000000) scale(0.100000,-0.100000)"
fill="#000000" stroke="none">
<path d="M3161 5055 c-372 -84 -671 -352 -777 -697 l-17 -57 -41 28 c-62 43
-116 68 -183 85 -89 23 -1208 24 -1298 1 -229 -58 -409 -241 -463 -470 -16
-67 -22 -77 -58 -104 -47 -34 -76 -70 -107 -138 -21 -46 -22 -60 -23 -376 l-2
-327 -42 -46 c-65 -70 -85 -123 -85 -224 0 -66 5 -96 22 -132 46 -101 154
-184 257 -197 l49 -6 36 -90 c68 -169 140 -276 261 -388 39 -36 91 -79 116
-94 l44 -28 0 -77 0 -78 -192 0 c-270 0 -353 -26 -480 -151 -73 -72 -128 -170
-148 -263 -7 -33 -9 -252 -8 -631 l3 -580 1355 0 1355 0 3 584 c2 637 2 639
-55 759 -36 75 -150 190 -224 226 -100 48 -148 56 -356 56 l-193 0 0 78 0 77
47 30 c26 16 78 59 116 94 l68 64 -31 19 -31 19 -62 -54 c-212 -184 -473 -268
-736 -239 -395 45 -692 299 -812 692 l-14 45 -65 6 c-149 12 -252 116 -253
254 -1 70 19 121 67 173 46 51 98 77 171 88 28 4 53 12 57 18 4 6 8 52 8 101
0 98 11 179 35 261 l15 53 54 -54 c104 -105 230 -166 377 -185 50 -6 345 -10
741 -10 l658 0 0 -85 c0 -94 7 -105 72 -105 43 0 131 -42 164 -77 59 -64 82
-148 63 -228 -6 -28 -11 -64 -10 -82 1 -29 -4 -35 -84 -83 -46 -28 -93 -51
-102 -50 -108 7 -118 5 -115 -15 6 -40 3 -56 -17 -73 -11 -9 -31 -45 -45 -79
l-25 -63 40 0 c43 0 48 6 90 125 14 38 18 40 64 46 105 13 201 83 250 180 19
37 23 55 16 62 -16 16 -13 53 5 68 13 10 15 24 11 61 -8 67 -38 129 -89 185
l-43 48 3 183 3 183 73 -69 c118 -112 257 -196 397 -242 l64 -20 99 -175 c54
-97 107 -180 117 -185 28 -15 75 -12 98 7 12 10 64 92 115 183 l93 164 95 37
c153 57 257 124 376 242 132 129 228 299 275 487 31 123 31 358 -1 484 -76
303 -276 550 -557 686 -153 75 -229 92 -425 96 -119 3 -183 -1 -229 -11z m444
-84 c164 -42 365 -164 474 -287 293 -332 329 -803 88 -1172 -114 -176 -298
-316 -502 -382 -38 -12 -76 -27 -82 -32 -7 -6 -51 -79 -99 -164 -47 -85 -94
-164 -104 -176 l-17 -22 -26 45 c-14 24 -60 106 -104 183 l-78 138 -97 33
c-145 48 -244 111 -368 235 -58 58 -120 131 -138 162 -189 322 -189 698 0
1015 71 120 250 284 385 352 78 39 206 80 298 95 70 11 291 -3 370 -23z
m-2410 -3306 c177 -34 405 -10 575 58 l60 25 0 -79 c0 -68 3 -80 21 -93 53
-37 -13 -236 -112 -341 -103 -109 -213 -157 -359 -156 -146 0 -257 48 -358
155 -103 109 -168 309 -112 344 17 10 20 23 20 91 l0 78 88 -33 c48 -18 128
-40 177 -49z m-775 -1395 l0 -190 -165 0 -165 0 0 190 0 190 165 0 165 0 0
-190z m2250 0 l0 -190 -175 0 -175 0 0 190 0 190 175 0 175 0 0 -190z"/>
<path d="M3271 4867 c-54 -32 -65 -98 -25 -146 14 -17 24 -36 22 -42 -2 -7
-29 -18 -58 -25 -30 -8 -95 -34 -144 -58 -49 -25 -93 -43 -98 -40 -4 3 -8 23
-8 45 0 55 -34 89 -90 89 -35 0 -48 -7 -91 -47 -28 -26 -58 -60 -66 -76 -32
-62 13 -137 83 -137 18 0 35 -4 38 -9 3 -4 -14 -47 -39 -94 -24 -47 -50 -113
-56 -146 -14 -68 -25 -74 -63 -36 -35 35 -97 35 -131 0 -23 -22 -25 -31 -25
-117 1 -96 7 -115 47 -136 36 -19 78 -14 107 13 34 31 56 32 56 3 1 -36 46
-157 80 -211 37 -60 33 -77 -15 -77 -27 0 -44 -8 -66 -29 -49 -50 -36 -105 45
-179 24 -23 56 -44 70 -48 62 -15 116 26 116 88 0 23 5 41 13 44 7 2 40 -11
73 -31 58 -35 167 -75 205 -75 26 0 24 -26 -6 -62 -52 -62 -12 -143 77 -154
69 -9 136 4 164 31 34 34 33 97 -2 132 -14 14 -23 31 -21 37 3 7 31 18 63 25
31 7 96 33 142 57 47 24 89 41 93 38 5 -3 9 -21 9 -40 0 -50 45 -94 96 -94 33
0 45 8 101 63 57 58 63 67 63 106 0 57 -33 91 -89 91 -22 0 -42 4 -46 9 -3 6
8 32 24 58 32 51 63 129 81 201 6 23 16 42 21 42 6 0 24 -11 41 -25 39 -33 88
-33 125 -1 27 23 28 27 28 121 0 94 -1 98 -28 121 -39 33 -95 33 -127 -1 -30
-32 -48 -32 -56 3 -15 69 -48 154 -79 207 -19 31 -32 61 -29 66 3 5 19 9 35 9
62 0 98 35 99 94 0 35 -7 46 -63 103 -56 55 -68 63 -101 63 -51 0 -96 -44 -96
-94 0 -19 -4 -37 -9 -40 -5 -3 -35 10 -67 29 -58 35 -168 75 -205 75 -31 0
-33 25 -5 53 35 35 36 95 2 134 -23 26 -30 28 -108 31 -56 1 -91 -2 -107 -11z
m230 -393 c299 -87 428 -446 254 -708 -86 -130 -230 -206 -391 -206 -254 0
-464 211 -464 465 0 203 128 379 325 447 65 22 203 23 276 2z"/>
<path d="M759 2864 c-21 -25 -1 -44 114 -109 59 -33 107 -63 107 -67 0 -4 -42
-30 -94 -58 -123 -66 -140 -80 -132 -108 12 -36 44 -27 196 57 143 80 165 97
155 123 -7 17 -295 178 -318 178 -8 0 -20 -7 -28 -16z"/>
<path d="M1828 2798 c-143 -79 -174 -106 -150 -130 25 -25 299 -168 316 -166
10 2 24 11 30 21 14 24 -6 40 -130 107 -52 28 -94 55 -94 59 0 4 47 33 104 65
57 31 110 64 117 72 16 19 1 48 -27 52 -10 1 -85 -35 -166 -80z"/>
<path d="M3317 2589 c-10 -6 -65 -106 -124 -222 -102 -204 -106 -215 -111
-288 -4 -67 -1 -84 20 -131 50 -109 145 -171 263 -172 167 -1 289 122 290 290
0 71 -1 74 -103 280 -57 115 -113 219 -125 232 -22 24 -78 30 -110 11z m163
-268 c87 -178 100 -211 100 -255 -1 -220 -286 -298 -397 -109 -23 39 -28 59
-27 108 1 55 9 77 97 255 98 200 105 212 119 208 4 -2 53 -95 108 -207z"/>
<path d="M2152 2120 c-6 -11 -12 -22 -12 -25 0 -6 61 -38 64 -33 27 37 46 67
46 72 0 3 -19 6 -43 6 -31 0 -45 -5 -55 -20z"/>
</g>
</svg>
