<svg width="16" height="23" fill="none" xmlns="http://www.w3.org/2000/svg"><path d="M8.062 13.463l-.077.076-.031.031-.016-.015-.093-.092-.155-.154-.124-.122c-.031-.031-.062-.062-.093-.108-1.04-1.073-3.74-4.002-3.725-5.78 0-1.12.45-2.178 1.257-2.96a4.256 4.256 0 012.98-1.211H8c1.133 0 2.204.445 2.995 1.242a4.073 4.073 0 011.226 2.975c0 2.085-3.724 5.719-4.159 6.118zm1.94 2.146l2.98-3.22a6.967 6.967 0 001.644-2.315c.403-.905.62-1.87.62-2.867C15.263 3.25 12.02.015 8 0h-.03C3.98 0 .722 3.205.706 7.16c0 .982.186 1.948.59 2.853.372.858.915 1.64 1.598 2.3l2.53 2.775.092.107.125.138.232.261-.03.046h-.016l-.016.015L.77 20.93l1.878.046.295 2.055 4.856-5.045.125-.138.48.506 3.337 3.527 1.133 1.196.31-2.055 1.893-.03-4.593-4.877-.481-.506z" fill="#FF6185"/></svg>