<svg width="16" height="24" fill="none" xmlns="http://www.w3.org/2000/svg"><path d="M8.062 13.463l-.077.076-.031.031-.016-.015-.093-.092-.155-.154-.124-.122c-.031-.031-.062-.062-.093-.108-1.04-1.073-3.74-3.986-3.725-5.78 0-1.12.45-2.162 1.257-2.96a4.256 4.256 0 012.98-1.211H8c1.133 0 2.204.445 2.995 1.242a4.073 4.073 0 011.226 2.975c0 2.07-3.724 5.704-4.159 6.118zm1.94 2.131l2.98-3.22a7.065 7.065 0 001.644-2.3c.403-.905.62-1.87.62-2.867C15.263 3.25 12.02.015 8 0h-.03C3.98 0 .722 3.205.706 7.145c0 .982.186 1.948.59 2.837.372.859.915 1.64 1.598 2.3l2.53 2.775.092.123.125.138.232.26-.03.047-.016.015-.016.015L.77 20.9l1.878.046L2.942 23l4.856-5.045.125-.138.48.506 3.337 3.527 1.133 1.196.31-2.055 1.893-.03-4.609-4.861-.465-.506z" fill="#FFBFCF"/></svg>