<svg width="280" height="400" fill="none" xmlns="http://www.w3.org/2000/svg"><path d="M267.479 364.533h2.93l3.463 9.067 3.463-9.067h2.93v11.734H278.4V366.4l-3.996 9.867h-1.332l-3.995-9.867v9.867h-1.865v-11.734h.267zm-7.992 1.867h-3.729v-1.867h9.323v1.867h-3.729v9.867h-1.865V366.4zM126.565 234.133l-1.332 1.334-.533.533-.266-.267-1.599-1.6-2.664-2.666-2.131-2.134c-.532-.533-1.065-1.066-1.598-1.866-17.847-18.667-64.197-69.334-63.93-100.534 0-19.466 7.724-37.6 21.576-51.466C87.94 61.867 106.053 54.4 125.233 54.4h.266c19.446 0 37.826 7.733 51.411 21.6 13.852 13.867 21.311 32.267 21.044 51.733 0 36-63.931 99.2-71.389 106.4zm33.297 37.067l51.145-56c12.253-11.467 21.577-25.067 28.236-40 6.926-15.733 10.655-32.533 10.655-49.867C250.165 56.533 194.491.267 125.499 0h-.533C56.506 0 .567 55.733.301 124.267c0 17.066 3.196 33.866 10.122 49.333 6.393 14.933 15.717 28.533 27.437 40l43.42 48.267L82.878 264l2.131 2.4 3.996 4.533-.533.8-.266.267-.266.267-86.574 91.2 32.232.8L38.66 400l83.377-87.733 2.131-2.4 8.258 8.8L189.696 380l19.446 20.8 5.328-35.733 32.498-.534L167.853 280l-7.991-8.8z" fill="#FFBFCF"/><path d="M166.256 278.133l-6.393-6.933-35.695 38.666.799.8 5.594 6.134 35.695-38.667z" fill="#F5ABBA"/><path d="M87.142 268.8l1.864 2.133 35.695-35.2-.266-.267-.267-.266-1.331-1.334-2.664-2.666-2.131-2.134L82.613 264l2.131 2.4 2.398 2.4z" fill="#FAB2C2"/></svg>