<?xml version="1.0" encoding="UTF-8"?> <svg xmlns="http://www.w3.org/2000/svg" width="52" height="52" fill="none"><path d="M25.522 2.938v0h-.006c-7.714 0-14.035 6.37-14.065 14.197h0v.006c0 1.924.355 3.84 1.137 5.649a14.218 14.218 0 0 0 3.039 4.519l3.305 3.748a1.5 1.5 0 0 1-.026 2.014l-6.29 6.769a2.5 2.5 0 0 0 .068 3.473l2.326 2.316a2.5 2.5 0 0 0 3.592-.066l6.772-7.255 6.735 7.326a2.5 2.5 0 0 0 3.585.098l-1.047-1.074 1.047 1.074 2.365-2.304a2.5 2.5 0 0 0 .099-3.479l-6.25-6.826a1.5 1.5 0 0 1-.01-2.015l3.277-3.646c1.365-1.31 2.398-2.854 3.133-4.558a14.252 14.252 0 0 0 1.192-5.678c.028-7.821-6.203-14.258-13.978-14.288z" stroke="#FF6185" stroke-width="3"></path><path d="M19.69 17.399h0v-.013c0-1.591.62-3.085 1.726-4.188a5.785 5.785 0 0 1 4.1-1.71c1.54 0 2.996.62 4.08 1.743l.004.006.005.005a5.836 5.836 0 0 1 1.682 4.205v.02c0 .765-.488 1.98-1.449 3.484-.91 1.425-2.085 2.869-3.117 4.034l-.018.019s0 0 0 0a1.698 1.698 0 0 1-2.466-.007c-1.022-1.177-2.197-2.639-3.106-4.081-.961-1.523-1.447-2.75-1.44-3.517z" stroke="#FF6185" stroke-width="3"></path></svg> 