<?xml version="1.0" encoding="UTF-8"?> <svg xmlns="http://www.w3.org/2000/svg" width="52" height="50" fill="none"><path d="M21 18.5a1.5 1.5 0 0 0 0-3v3zm10 30l-1.06 1.06a1.5 1.5 0 0 0 2.56-1.06H31zM32.5 33a1.5 1.5 0 0 0-3 0h3zM21 15.5H6.5v3H21v-3zM0 22v16h3V22H0zm6.5 22.5h18.586v-3H6.5v3zm18.232-.146l5.207 5.207 2.122-2.122-5.207-5.207-2.122 2.122zM32.5 48.5V33h-3v15.5h3zm-7.414-4a.5.5 0 0 1-.354-.146l2.122-2.122a2.5 2.5 0 0 0-1.768-.732v3zM0 38a6.5 6.5 0 0 0 6.5 6.5v-3A3.5 3.5 0 0 1 3 38H0zm6.5-22.5A6.5 6.5 0 0 0 0 22h3a3.5 3.5 0 0 1 3.5-3.5v-3z" fill="#FFBECF"></path><path d="M21 33l1.06 1.06A1.5 1.5 0 0 1 19.5 33H21zM52 6.5v16h-3v-16h3zM45.5 29H26.914v-3H45.5v3zm-18.232-.146L22.06 34.06l-2.122-2.122 5.207-5.207 2.122 2.122zM26 0h19.5v3H26V0zm-3.5 6.5V33h-3V6.5h3zM26 3a3.5 3.5 0 0 0-3.5 3.5h-3A6.5 6.5 0 0 1 26 0v3zm.914 26a.5.5 0 0 0 .354-.146l-2.122-2.122A2.5 2.5 0 0 1 26.914 26v3zM52 22.5a6.5 6.5 0 0 1-6.5 6.5v-3a3.5 3.5 0 0 0 3.5-3.5h3zm-3-16A3.5 3.5 0 0 0 45.5 3V0A6.5 6.5 0 0 1 52 6.5h-3z" fill="#FF6185"></path><path fill-rule="evenodd" clip-rule="evenodd" d="M34.22 19.803c0-.699.538-1.265 1.236-1.265s1.264.566 1.264 1.265c0 .698-.566 1.269-1.264 1.269-.698 0-1.237-.561-1.237-1.26v-.01z" fill="#FF6185"></path><path d="M39.52 12.025c0 1.54-1.118 2.479-1.938 3.168l-.008.006c-.31.261-.89.738-.888.916a1.245 1.245 0 0 1-1.255 1.256h-.01c-.694 0-1.259-.54-1.264-1.235-.011-1.351.962-2.168 1.759-2.837l.032-.027c.63-.53 1.044-.902 1.044-1.242 0-.69-.562-1.251-1.251-1.251-.69 0-1.252.561-1.252 1.25a1.264 1.264 0 1 1-2.529 0 3.78 3.78 0 1 1 7.56-.005z" fill="#FF6185"></path><path d="M35 15.301h1v1h-1v-1z" fill="#FF6185"></path><circle cx="9.5" cy="30" r="1.5" fill="#FFBECF"></circle><circle cx="14.5" cy="30" r="1.5" fill="#FFBECF"></circle></svg> 