<?xml version="1.0" encoding="UTF-8"?> <svg xmlns="http://www.w3.org/2000/svg" width="52" height="52" fill="none"><path d="M7.5 27.4v-18c0-1.6 1.3-2.9 2.9-2.9h.1c1.6 0 3 1.3 3 2.9v12.9V4.4c0-1.6 1.3-2.9 2.9-2.9h.1c1.7 0 3 1.3 3 2.9v17.9V8.4c0-1.6 1.3-2.9 2.9-2.9h.1c1.699 0 2.999 1.3 2.999 2.9v13.9-6.9c0-1.6 1.3-2.9 2.9-2.9h.1c1.6 0 3.003 1.3 3.003 2.9v12.4m-5.003 17.5v5.043M7.5 50.3c0-11-6-11-6-18V20.4c0-1.6 1.3-2.9 2.9-2.9h.1c1.6 0 3 1.3 3 2.9" stroke="#FFBECF" stroke-width="3" stroke-miterlimit="10" stroke-linecap="round" stroke-linejoin="round"></path><path d="M34.775 26c-2.117 0-3.964 1.308-4.775 3.113C29.19 27.308 27.342 26 25.225 26A5.233 5.233 0 0 0 20 31.233C20 39.308 30 44 30 44s10-4.692 10-12.767A5.233 5.233 0 0 0 34.775 26z" fill="#FF6185"></path></svg> 